# xmcd
#
# Track frame offsets:
# 182
# 19870
# 37627
# 63382
# 81525
# 100930
# 130007
# 148727
# 167415
# 189710
# 210202
# 232320
# 250917
# 268812
# 285350
# 304017
# 323790
#
# Disc length: 4559 seconds
#
#
# Revision: 76
# Processed by: cddbd v1.5.1PL2 Copyright (c) Steve Scherf et al.
# Submitted via: FreeRIP 2.945 
#
DISCID=0611cd11,ec11cd11
DTITLE=Queen - Greatest Hits CD2
DYEAR=1996
DGENRE=Rock
TTITLE0=Queen - A Kind Of Magic (1986)
TTITLE1=Queen - Under Pressure (1981)
TTITLE2=Queen - Radio Ga Ga (1984)
TTITLE3=Queen - I Want It All (1989)
TTITLE4=Queen - I Want To Break Free (1984)
TTITLE5=Queen - Innuendo (1991)
TTITLE6=Queen - It's A Hard Life (1984)
TTITLE7=Queen - Breakthru  (1989)
TTITLE8=Queen - Who Wants To Live Forever (1986)
TTITLE9=Queen - Headlong (1991)
TTITLE10=Queen - The Miracle (1989)
TTITLE11=Queen - I'm Going Slightly Mad (1991)
TTITLE12=Queen - The Invisible Man (1989)
TTITLE13=Queen - Hammer To Fall (1984)
TTITLE14=Queen - Friends Will Be Friends (1986)
TTITLE15=Queen - The Show Must Go On (1991)
TTITLE16=One Vision (1985)
EXTD=
EXTT0=
EXTT1=
EXTT2=
EXTT3=
EXTT4=
EXTT5=
EXTT6=
EXTT7=
EXTT8=
EXTT9=
EXTT10=
EXTT11=
EXTT12=
EXTT13=
EXTT14=
EXTT15=
EXTT16=
PLAYORDER=
